<svg xmlns="http://www.w3.org/2000/svg" x="0px" y="0px" width="100" height="100" viewBox="0 0 100 100">
    <path fill="#8cc78c" d="M91,23.67v52.66c0,1.44-1.69,2.21-2.78,1.28L74,65.36V34.64l14.22-12.25	C89.31,21.46,91,22.23,91,23.67z"></path><polygon fill="#70b570" points="74,65.36 56.67,50.38 56.23,50 56.67,49.62 74,34.64"></polygon><path fill="#ead032" d="M56,50V35H26l-0.5-0.45V17.5l-0.25-0.25L25.5,17H69c2.76,0,5,2.24,5,5v12.64L56.67,49.62L56.23,50H56	z"></path><path fill="#8cc78c" d="M56,65V50h0.23L74,65.36V78c0,2.76-2.24,5-6,5H25.5v-0.5v-17L26,65H56z"></path><polygon fill="#40a6dd" points="26,35 26,65 25.5,65.5 8.5,65.5 8,65.5 8,34.55 25.5,34.55"></polygon><path fill="#3a83c1" d="M25.5,82.5V83H12c-1.76,0-4-2.24-4-4V65.5h0.5h17V82.5z"></path><polygon fill="#e85654" points="25.5,17.5 25.5,34.55 8,34.55 8,34.5 25.25,17.25"></polygon><path fill="#1f212b" d="M56,66H26c-0.553,0-1-0.448-1-1V35c0-0.552,0.447-1,1-1h30c0.553,0,1,0.448,1,1v30	C57,65.552,56.553,66,56,66z M27,64h28V36H27V64z"></path><path fill="#1f212b" d="M68,84H12c-2.337,0-5-2.664-5-5V34.5c0-0.265,0.105-0.52,0.293-0.707l17.5-17.5	C24.98,16.105,25.234,16,25.5,16H69c3.309,0,6,2.691,6,6v56C75,81.533,72.121,84,68,84z M9,34.914V79c0,1.206,1.794,3,3,3h56	c2.99,0,5-1.607,5-4V22c0-2.206-1.794-4-4-4H25.914L9,34.914z"></path><path fill="#1f212b" d="M25.5,35h-18v-1H25V17.5h1v17.05C26,34.826,25.776,35,25.5,35z"></path><path fill="#1f212b" d="M26,82.5h-1V66H8.5v-1h17c0.276,0,0.5,0.224,0.5,0.5V82.5z"></path><path fill="#1f212b" d="M69.5,33c-0.276,0-0.5-0.224-0.5-0.5v-7c0-1.93-1.57-3.5-3.5-3.5h-25c-0.276,0-0.5-0.224-0.5-0.5	s0.224-0.5,0.5-0.5h25c2.481,0,4.5,2.019,4.5,4.5v7C70,32.776,69.776,33,69.5,33z"></path><path fill="#1f212b" d="M37.5,22h-4c-0.276,0-0.5-0.224-0.5-0.5s0.224-0.5,0.5-0.5h4c0.276,0,0.5,0.224,0.5,0.5	S37.776,22,37.5,22z"></path><path fill="#1f212b" d="M30.5,22h-1c-0.276,0-0.5-0.224-0.5-0.5s0.224-0.5,0.5-0.5h1c0.276,0,0.5,0.224,0.5,0.5	S30.776,22,30.5,22z"></path><path fill="#1f212b" d="M21.5,79h-5c-2.481,0-4.5-2.019-4.5-4.5v-1c0-0.276,0.224-0.5,0.5-0.5s0.5,0.224,0.5,0.5v1	c0,1.93,1.57,3.5,3.5,3.5h5c0.276,0,0.5,0.224,0.5,0.5S21.776,79,21.5,79z"></path><path fill="#1f212b" d="M12.5,71c-0.276,0-0.5-0.224-0.5-0.5v-1c0-0.276,0.224-0.5,0.5-0.5s0.5,0.224,0.5,0.5v1	C13,70.776,12.776,71,12.5,71z"></path><path fill="#1f212b" d="M89.31,79.018c-0.626,0-1.242-0.223-1.743-0.654L73.348,66.119l1.305-1.516l14.219,12.244	c0.302,0.258,0.611,0.159,0.731,0.104C89.722,76.896,90,76.726,90,76.331V23.669c0-0.396-0.278-0.565-0.397-0.621	c-0.12-0.055-0.43-0.154-0.731,0.104l-14.22,12.244l-1.305-1.516l14.219-12.244c0.805-0.693,1.904-0.849,2.87-0.406	C91.4,21.674,92,22.608,92,23.669V76.33c0,1.062-0.6,1.996-1.563,2.438C90.072,78.936,89.688,79.018,89.31,79.018z"></path><polygon fill="#1f212b" points="73.673,65.74 55.467,50 56.348,49.242 73.673,34.26 74.327,35.017 57,50 74.327,64.983"></polygon>
    </svg>